<svg width="160" height="160" viewBox="0 0 160 160" fill="none" xmlns="http://www.w3.org/2000/svg">
<g filter="url(#filter0_i)">
<circle cx="80" cy="80" r="80" fill="#EEEEEE"/>
</g>
<path d="M113 68.8791C113 50.6989 98.2471 36 80 36C61.7529 36 47 50.6989 47 68.8791C47 76.6154 49.7176 83.7714 54.1824 89.3802L80 124L105.818 89.3802C110.282 83.7714 113 76.6154 113 68.8791ZM80 86.6725C70.2941 86.6725 62.5294 78.9363 62.5294 69.2659C62.5294 59.5956 70.2941 51.8593 80 51.8593C89.7059 51.8593 97.4706 59.5956 97.4706 69.2659C97.4706 78.9363 89.7059 86.6725 80 86.6725Z" fill="#4488ff"/>
<defs>
<filter id="filter0_i" x="0" y="0" width="160" height="160" filterUnits="userSpaceOnUse" color-interpolation-filters="sRGB">
<feFlood flood-opacity="0" result="BackgroundImageFix"/>
<feBlend mode="normal" in="SourceGraphic" in2="BackgroundImageFix" result="shape"/>
<feColorMatrix in="SourceAlpha" type="matrix" values="0 0 0 0 0 0 0 0 0 0 0 0 0 0 0 0 0 0 127 0" result="hardAlpha"/>
<feOffset/>
<feGaussianBlur stdDeviation="3.5"/>
<feComposite in2="hardAlpha" operator="arithmetic" k2="-1" k3="1"/>
<feColorMatrix type="matrix" values="0 0 0 0 0 0 0 0 0 0 0 0 0 0 0 0 0 0 0.1 0"/>
<feBlend mode="normal" in2="shape" result="effect1_innerShadow"/>
</filter>
</defs>
</svg>
